<?xml version="1.0" encoding="UTF-8"?>
<svg width="100.2mm" height="128.01mm" version="1.1" viewBox="0 0 355.02636 453.57639" xmlns="http://www.w3.org/2000/svg">
 <g transform="translate(-708.21 -570.93)" fill-rule="evenodd">
  <path d="m886.41 853.87-9.3439-1.7678c-18.421 24.972-38.295 44.421-59.094 60.357 13.186-16.604 28.796-30.381 39.396-50.003-27.609 10.518-46.234 65.57-83.843 26.516 7.2398 2.4437 15.2 9.6911 21.718 7.3236-10.068-6.1921-25.315-23.254-35.355-43.942-5.9719 7.6331-1.9773 14.55 2.0203 21.466-11.612-8.2093-19.564-30.725 5.5558-63.135-5.671-5.4283-13.366 8.6164-19.907 16.236 6.9346-10.747 8.3065-29.603 26.415-30.585 14.963-0.8112 41.747 19.672 54.773 16.841-0.22213-5.0781-20.125-16.445-29.965-25.978l35.355 17.93c-1.443-7.046-9.324-16.078-14.395-24.244 5.8934 4.463 14.458 13.782 17.678 13.385 4.2713 0.99994-0.13725-7.0014-1.7678-12.122l11.364 17.93c3.7788 2.9001 6.4522 0.27309 9.5964 0l-1.2627 7.0711c12.394 10.972 27.357 8.5935 31.062 7.0711z"/>
  <path d="m885.58 1001.2s4.5454-26.824-4.5982-27.187c-10.303-0.40931-9.1072 29.286-9.1072 29.286s0.0149-25.775-7.1429-26.339c-7.0154-0.55306-10.982 13.661-10.982 13.661s-1.556-15.397-7.1429-15.714c-4.2461-0.24127-8.75 9.2857-8.75 9.2857s1.6312-18.657-4.8214-18.75c-13.689 2.1952-12.221 44.153-4.6429 45.357 5.0479 0.4954 8.9286-12.321 8.9286-12.321s-0.0877 17.065 6.0714 17.5c7.1434 0.5039 9.8214-19.107 9.8214-19.107s-1.0923 21.925 6.6071 22.143c7.2689 0.2054 12.143-12.946 12.143-12.946s2.0518 14.957 7.7678 14.464c5.1988-0.4478 6.1161-14.196 6.1161-14.196l-0.13393 18.214s-9.8756-3.531-15-3.3929c-4.1438 0.1117-7.8217 3.545-11.964 3.3929-5.3819-0.1976-9.9992-4.0601-15.179-5.5358-5.6136-1.5994-12.131-0.5797-17.143-3.5714-2.5391-1.5156-6.3216-3.8917-5.7143-6.7857 1.5116-7.2036-9.4643-15.893-9.4643-15.893 1.4183 0.35458 2.5528-14.918-5.1786-20.893 0 0-5.1271-8.4293-9.4643-9.6429-6.7429-1.8866-13.894 7.8721-20.357 5.1786-7.1121-2.964-7.3819-14.768-11.724-19.921-7.1993-8.5426-18.191-9.9948-23.99-19.544-3.2523-5.3554-4.925-11.955-4.6429-18.214 0.37813-8.3879 8.3929-23.75 8.3929-23.75 0.9392-2.6577-11.425-30.179-15.179-30.179 0 0 1.9828-22.451 0.71429-33.571-3.3198-29.103-21.53-55.887-21.607-85.179-0.0417-15.823 5.7225-31.314 11.429-46.071 5.561-14.383 12.929-28.218 21.964-40.714 11.423-15.798 24.637-30.731 40.179-42.5 14.412-10.914 31.311-18.316 48.036-25.179 8.1176-3.3311 16.597-5.8509 25.179-7.6786 10.384-2.2114 31.607-3.9286 31.607-3.9286l-0.89285 11.607c0.61115-0.71566-26.165 5.5743-53.989 14.771-11.55 3.8178-23.67 4.8404-32.975 5.7646-14.722 5.4992-25.757 18.5-36.071 30.357-12.27 14.105-20.531 31.277-29.821 47.5-4.1675 7.2775-8.353 14.592-11.607 22.321-1.7018 4.0422-3.5537 8.1492-4.1071 12.5-1.8665 14.674 0.75192 29.644 2.8571 44.286 1.4674 10.206 3.2085 20.508 6.7857 30.179 1.94 5.2444 4.386 10.437 7.8571 14.821 1.1784 1.4882 2.5453 4.5079 4.2857 3.75 3.7694-1.6414 13.693-13.917 10-18.214-2.0484-2.3837-7.5 5.7143-7.5 5.7143-4.4584 0 8.9085-21.64 7.5-26.964-0.7521-2.8431-7.1428 5.1786-7.1428 5.1786s10.71-19.529 8.75-29.643c-5.4103-21.389-7.5243-56.519-2.8572-52.5-1.7249 0.99854 6.3346 41.174 11.607 54.643 3.1374 8.2496-4.9813 17.084-5.5357 25.893-0.35276 5.6044 2.4306 11.26 1.4286 16.786-2.6227 14.461-15.182 25.61-18.929 39.821-1.9019 7.2132-3.2896 15.054-1.6071 22.321 2.3762 10.264 13.076 17.169 15.893 27.321 1.0983 3.958 1.6202 8.4751 0.17857 12.321-1.3758 3.6706-6.2922 5.1559-7.8572 8.75-2.1234 4.8767-2.396 10.663-1.4286 15.893 0.59071 3.1936 2.2287 6.2368 4.2857 8.75 5.5122 6.7347 15.246 9.1222 20.714 15.893 3.9313 4.8678 8.0357 16.964 8.0357 16.964s3.3106 3.5824 5.5357 4.2857c2.4431 0.77228 7.6786-0.35714 7.6786-0.35714s6.8988-3.0993 8.9286-6.0714c1.2052-1.7648 2.5332-4.4206 1.4286-6.25-2.0374-3.3742-11.429-3.0357-11.429-3.0357s8.5736-0.26964 12.5-1.7857c8.717-3.3658 19.511-7.1351 23.214-15.714 0.8842-2.0485-1.0714-6.6072-1.0714-6.6072s4.4609 4.3563 6.4286 3.0357c16.958-11.381 29.377-4.9105 19.643 8.3928-3.4417-18.791-12.526-5.6078-19.643-3.5714l3.2143 12.679s-4.8625-8.8085-8.0357-7.1429c-7.3282 3.8465-4.381 20.97 3.0357 24.643 7.7214 3.8239 22.321-13.036 22.321-13.036s2.1079 1.7711 3.3928 2.1429c1.3723 0.39707 5.4567-0.81827 4.2857 0-7.0988 4.9605-16.799 8.8232-16.607 9.1071 0 0 3.1916 11.856 7.8571 11.607 4.3076-0.2301 6.0714-11.429 6.0714-11.429s-1.5648 12.209 2.6786 15c4.1374 2.7216 11.671 0.69655 14.464-3.3928 1.6618-2.4329-1.25-8.75-1.25-8.75 0.54467-0.25139 2.0769 8.2795 3.9286 10.714 2.8856 3.7941 12.634-2.5 12.634-2.5 1.1254 10.531-0.41672 20.101-0.0893 31.473z"/>
  <path d="m763.93 737.36c38.212 13.828 76.299 28.783 113.57 51.071-33.676-26.656-70.089-38.664-113.57-51.071z"/>
  <path d="m793.47 638.67c3.1804 29.437 36.772 47.492 32.325 73.741 2.343-24.841-28.507-29.631-32.325-73.741z"/>
  <path d="m883.48 738.88c2.4342-12.459 12.316-24.917 21.213-37.376-9.7702 16.67-13.866 28.739-21.213 37.376z"/>
  <path d="m883.42 869.1-15.152 46.972s9.1551-12.131 11.617-19.193c3.0727-8.8142 3.5355-27.779 3.5355-27.779z"/>
  <path d="m885.05 853.87 9.3439-1.7678c18.421 24.972 38.295 44.421 59.094 60.357-13.186-16.604-28.796-30.381-39.396-50.003 27.609 10.518 46.234 65.57 83.843 26.516-7.2398 2.4437-15.2 9.6911-21.718 7.3236 10.068-6.1921 25.315-23.254 35.355-43.942 5.9718 7.6331 1.9772 14.55-2.0204 21.466 11.612-8.2093 19.564-30.725-5.5558-63.135 5.671-5.4283 13.366 8.6164 19.907 16.236-6.9346-10.747-8.3065-29.603-26.415-30.585-14.963-0.8112-41.747 19.672-54.773 16.841 0.22213-5.0781 20.125-16.445 29.965-25.978l-35.355 17.93c1.443-7.046 9.324-16.078 14.395-24.244-5.8934 4.463-14.458 13.782-17.678 13.385-4.2713 0.99994 0.13725-7.0014 1.7678-12.122l-11.364 17.93c-3.7788 2.9001-6.4522 0.27309-9.5964 0l1.2627 7.0711c-12.394 10.972-27.357 8.5935-31.062 7.0711z"/>
  <path d="m885.65 1001.2s-4.3222-26.824 4.8214-27.187c10.303-0.40931 9.1072 29.286 9.1072 29.286s-0.0149-25.775 7.1429-26.339c7.0154-0.55306 10.982 13.661 10.982 13.661s1.556-15.397 7.1429-15.714c4.2461-0.24127 8.75 9.2857 8.75 9.2857s-1.6312-18.657 4.8214-18.75c13.689 2.1952 12.221 44.153 4.6429 45.357-5.0479 0.4954-8.9286-12.321-8.9286-12.321s0.0877 17.065-6.0714 17.5c-7.1434 0.5039-9.8214-19.107-9.8214-19.107s1.0923 21.925-6.6071 22.143c-7.2689 0.2054-12.143-12.946-12.143-12.946s-2.0518 14.957-7.7678 14.464c-5.1988-0.4478-5.8929-13.928-5.8929-13.928l-0.31251 17.946s10.099-3.531 15.223-3.3929c4.1438 0.1117 7.8217 3.545 11.964 3.3929 5.3819-0.1976 9.9992-4.0601 15.179-5.5358 5.6136-1.5994 12.131-0.5797 17.143-3.5714 2.5391-1.5156 6.3216-3.8917 5.7143-6.7857-1.5116-7.2036 9.4643-15.893 9.4643-15.893-1.4183 0.35458-2.5528-14.918 5.1786-20.893 0 0 5.1271-8.4293 9.4643-9.6429 6.7429-1.8866 13.894 7.8721 20.357 5.1786 7.1121-2.964 7.3819-14.768 11.724-19.921 7.1993-8.5426 18.191-9.9948 23.99-19.544 3.2523-5.3554 4.925-11.955 4.6428-18.214-0.3781-8.3879-8.3928-23.75-8.3928-23.75-0.9392-2.6577 11.425-30.179 15.179-30.179 0 0-1.9829-22.451-0.7143-33.571 3.3198-29.103 21.53-55.887 21.607-85.179 0.042-15.823-5.7225-31.314-11.429-46.071-5.5609-14.383-12.929-28.218-21.964-40.714-11.423-15.798-24.637-30.731-40.179-42.5-14.412-10.914-31.311-18.316-48.036-25.179-8.1176-3.3311-16.597-5.8509-25.179-7.6786-10.384-2.2114-31.607-3.9286-31.607-3.9286l0.89285 11.607c-0.61115-0.71566 26.165 5.5743 53.989 14.771 11.55 3.8178 23.67 4.8404 32.975 5.7646 14.722 5.4992 25.757 18.5 36.071 30.357 12.27 14.105 20.531 31.277 29.822 47.5 4.1675 7.2775 8.353 14.592 11.607 22.321 1.7018 4.0422 3.5537 8.1492 4.1071 12.5 1.8666 14.674-0.7519 29.644-2.8571 44.286-1.4674 10.206-3.2085 20.508-6.7857 30.179-1.9401 5.2444-4.386 10.437-7.8572 14.821-1.1783 1.4882-2.5453 4.5079-4.2857 3.75-3.7693-1.6414-13.693-13.917-10-18.214 2.0484-2.3837 7.5 5.7143 7.5 5.7143 4.4585 0-8.9085-21.64-7.5-26.964 0.7521-2.8431 7.1429 5.1786 7.1429 5.1786s-10.71-19.529-8.75-29.643c5.4102-21.389 7.5243-56.519 2.8571-52.5 1.725 0.99854-6.3345 41.174-11.607 54.643-3.1374 8.2496 4.9813 17.084 5.5357 25.893 0.3528 5.6044-2.4306 11.26-1.4286 16.786 2.6227 14.461 15.182 25.61 18.929 39.821 1.9019 7.2132 3.2896 15.054 1.6071 22.321-2.3761 10.264-13.076 17.169-15.893 27.321-1.0983 3.958-1.6202 8.4751-0.1786 12.321 1.3758 3.6706 6.2922 5.1559 7.8572 8.75 2.1234 4.8767 2.396 10.663 1.4285 15.893-0.5907 3.1936-2.2287 6.2368-4.2857 8.75-5.5121 6.7347-15.246 9.1222-20.714 15.893-3.9313 4.8678-8.0357 16.964-8.0357 16.964s-3.3106 3.5824-5.5357 4.2857c-2.4431 0.77228-7.6786-0.35714-7.6786-0.35714s-6.8988-3.0993-8.9286-6.0714c-1.2052-1.7648-2.5332-4.4206-1.4286-6.25 2.0374-3.3742 11.429-3.0357 11.429-3.0357s-8.5736-0.26964-12.5-1.7857c-8.717-3.3658-19.511-7.1351-23.214-15.714-0.8842-2.0485 1.0714-6.6072 1.0714-6.6072s-4.4609 4.3563-6.4286 3.0357c-16.958-11.381-29.377-4.9105-19.643 8.3928 3.4417-18.791 12.526-5.6078 19.643-3.5714l-3.2143 12.679s4.8625-8.8085 8.0357-7.1429c7.3282 3.8465 4.381 20.97-3.0357 24.643-7.7214 3.8239-22.321-13.036-22.321-13.036s-2.1079 1.7711-3.3928 2.1429c-1.3723 0.39707-5.4567-0.81827-4.2857 0 7.0988 4.9605 16.799 8.8232 16.607 9.1071 0 0-3.1916 11.856-7.8571 11.607-4.3076-0.2301-6.0714-11.429-6.0714-11.429s1.5648 12.209-2.6786 15c-4.1374 2.7216-11.671 0.69655-14.464-3.3928-1.6618-2.4329 1.25-8.75 1.25-8.75-0.54467-0.25139-2.0769 8.2795-3.9286 10.714-2.8856 3.7941-12.991-2.5446-12.991-2.5446 0.85086 4.7847 1.1084 20.531 0.22324 31.518z"/>
  <path d="m991.81 682.01c-38.212-13.828-76.299-28.783-113.57-51.071 33.676 26.656 70.089 38.664 113.57 51.071z"/>
  <path d="m752.85 900.09c22.338 12.27 29.842 32.771 51.187 40.726-19.834-8.2934-17.529-22.728-51.187-40.726z"/>
  <path d="m979.41 762.45c-2.4342-12.459-12.316-24.917-21.213-37.376 9.7702 16.67 13.866 28.739 21.213 37.376z"/>
  <path d="m888.04 869.1 15.152 46.972s-9.1551-12.131-11.617-19.193c-3.0727-8.8142-3.5355-27.779-3.5355-27.779z"/>
  <path d="m1017.3 930.31c-2.4342-12.459-12.316-24.917-21.213-37.376 9.7703 16.67 13.866 28.739 21.213 37.376z"/>
  <path d="m995.07 929.72c9.886-7.963 16.299-22.514 23.171-36.195-10.19 16.416-18.957 25.668-23.171 36.195z"/>
 </g>
</svg>
